<svg id="Layer_1" data-name="Layer 1" xmlns="http://www.w3.org/2000/svg" viewBox="0 0 74.75 74.75"><defs><style>.cls-1{fill:#d6d0c6;}.cls-2{fill:none;stroke:#000;stroke-miterlimit:10;stroke-width:2px;}.cls-3{fill:#fff;}</style></defs><title>logo-circle</title><circle class="cls-1" cx="37.37" cy="37.37" r="37.37"/><polyline class="cls-2" points="25.25 64.89 25.25 58.43 21.07 58.43 21.07 50.09 18.37 50.09 20.76 46.64 20.76 38.94 35.57 38.94 35.57 64.92"/><polyline class="cls-2" points="30.04 64.89 30.04 47.59 27.43 47.59 27.43 42.78 20.86 42.78"/><path class="cls-2" d="M46.86,69.92s5.61.12,5.61-9.17c0,0,9.34-.32,11.68-11H55.83s-9,0-9,9.34Z" transform="translate(-11.08 -11.08)"/><polyline class="cls-2" points="44.75 38.61 44.75 31.73 51.42 31.73 51.42 23.61 54.13 23.61 51.52 19.84 51.52 12.12 35.89 12.12 35.89 20.15 35.89 45.71"/><polyline class="cls-2" points="40.89 39.24 40.89 20.47 44.75 20.47 44.75 16.08 51.52 16.08"/><polyline class="cls-2" points="53.09 38.61 53.09 45.8 55.65 48.94 52.6 48.94 52.6 56 46.03 56 46.03 64.89"/><path class="cls-2" d="M40.2,50.05l-4.8-5.82H28.47l-2.29-1.8L26.84,40,30.9,36.7l2.49-4.6,6.07-.33,7.29,9.35V50Z" transform="translate(-11.08 -11.08)"/><polygon class="cls-2" points="29.88 22.26 35.3 21.77 34.54 23.71 32.11 25.36 29.88 22.26"/><path class="cls-3" d="M34,32.08a8.23,8.23,0,0,1,3.15-4.8,9.57,9.57,0,0,0,3.16-2.81,2.55,2.55,0,0,0,.31-1.4,2.12,2.12,0,0,1,.14,2,45,45,0,0,1-4,4.62A30.37,30.37,0,0,1,34,32.08Z" transform="translate(-11.08 -11.08)"/><path d="M33,33.27,33.3,32a8.84,8.84,0,0,1,3.44-5.24,9.62,9.62,0,0,0,2.95-2.58,2,2,0,0,0,.21-1V20.72l1.3,2a2.83,2.83,0,0,1,.16,2.68c-.11.21-.29.51-.51.88-.85,1.36-4.29,2.92-5.07,4.94-.09.25,1.39,0,1.36.06-.78,1.09-3.27,1.23-3.49,1.33Zm5.61-6.2c-.33.25-.72.52-1.14.79a6.61,6.61,0,0,0-2.37,2.81,7.39,7.39,0,0,0,1.64-1.11,26.76,26.76,0,0,0,1.85-2.49Z" transform="translate(-11.08 -11.08)"/><polygon class="cls-2" points="19.5 33.51 19.59 35.93 21.18 37.48 21.86 36.6 21.53 35.26 22.41 35.44 23.09 33.12 20.37 33.12 19.5 33.51"/><path class="cls-2" d="M34.7,31.89a8.84,8.84,0,0,1,8.92-5.1,2.83,2.83,0,0,0,2.43-1.08s.46,2.06-3.37,3.09-3.22,3-3.22,3Z" transform="translate(-11.08 -11.08)"/></svg>