<svg id="Layer_1" data-name="Layer 1" xmlns="http://www.w3.org/2000/svg" viewBox="0 0 97.26 97.12"><defs><style>.cls-1{fill:none;stroke:#000;stroke-miterlimit:10;stroke-width:2px;}.cls-2{fill:#fff;}</style></defs><title>goatLogo</title><polyline class="cls-1" points="31.4 93.75 31.4 83.12 24.53 83.12 24.53 69.4 20.09 69.4 24.02 63.73 24.02 51.06 48.38 51.06 48.38 93.79"/><polyline class="cls-1" points="39.29 93.74 39.29 65.29 35 65.29 35 57.39 24.19 57.39"/><path class="cls-1" d="M48.73,83.8S58,84,58,68.71c0,0,15.37-.52,19.23-18.16H63.48s-14.75,0-14.75,15.36Z"/><polyline class="cls-1" points="63.48 50.53 63.48 39.22 74.45 39.22 74.45 25.85 78.91 25.85 74.62 19.66 74.62 6.96 48.9 6.96 48.9 20.16 48.9 62.2"/><polyline class="cls-1" points="57.12 51.57 57.12 20.68 63.48 20.68 63.48 13.47 74.62 13.47"/><polyline class="cls-1" points="77.2 50.53 77.2 62.36 81.4 67.51 76.4 67.51 76.4 79.13 65.59 79.13 65.59 93.74"/><path class="cls-1" d="M37.77,51.13l-7.88-9.58H18.48l-3.76-3,1.08-4,6.68-5.37,4.1-7.58,10-.53,12,15.37V51.07Z"/><polygon class="cls-1" points="39.02 23.63 47.94 22.82 46.68 26.03 42.69 28.73 39.02 23.63"/><path class="cls-2" d="M27.51,21.57a13.49,13.49,0,0,1,5.19-7.9,15.65,15.65,0,0,0,5.19-4.62,4.23,4.23,0,0,0,.52-2.31A3.48,3.48,0,0,1,38.63,10a69.94,69.94,0,0,1-6.57,7.6A46.56,46.56,0,0,1,27.51,21.57Z"/><path d="M26,23.52l.45-2.17a14.52,14.52,0,0,1,5.65-8.62,15.53,15.53,0,0,0,4.85-4.24,3.28,3.28,0,0,0,.35-1.71V2.89l2.13,3.27a4.64,4.64,0,0,1,.26,4.41c-.17.33-.47.84-.83,1.44-1.4,2.24-7.06,4.81-8.34,8.13-.16.4,2.28,0,2.24.1-1.29,1.79-5.38,2-5.74,2.18Zm9.24-10.19c-.55.41-1.18.86-1.88,1.3a10.82,10.82,0,0,0-3.89,4.61,12.5,12.5,0,0,0,2.7-1.81,48.71,48.71,0,0,0,3-4.1Z"/><polygon class="cls-1" points="21.95 42.14 22.1 46.12 24.71 48.67 25.84 47.22 25.29 45.02 26.73 45.31 27.85 41.49 23.38 41.49 21.95 42.14"/><path class="cls-1" d="M28.73,21.25A14.53,14.53,0,0,1,43.4,12.86a4.62,4.62,0,0,0,4-1.77s.76,3.39-5.54,5.08-5.31,4.95-5.31,4.95Z"/></svg>