<svg id="Layer_1" data-name="Layer 1" xmlns="http://www.w3.org/2000/svg" viewBox="0 0 97.26 97.12"><defs><style>.cls-1,.cls-3{fill:none;stroke-miterlimit:10;}.cls-1{stroke:#000;stroke-width:1.5px;}.cls-2{fill:#fff;}.cls-3{stroke:#d6d0c6;stroke-width:3px;}</style></defs><title>logo-circle</title><polyline class="cls-1" points="35.17 83.46 35.17 75.27 29.87 75.27 29.87 64.69 26.45 64.69 29.48 60.32 29.48 50.55 48.26 50.55 48.26 84"/><polyline class="cls-1" points="41.25 83.86 41.25 61.52 37.94 61.52 37.94 55.43 29.61 55.43"/><path class="cls-1" d="M48.53,75.79s7.11.15,7.11-11.63c0,0,11.85-.4,14.82-14H59.9S48.53,50.14,48.53,62Z"/><polyline class="cls-1" points="59.9 50.14 59.9 41.42 68.36 41.42 68.36 31.11 71.8 31.11 68.49 26.34 68.49 16.55 48.66 16.55 48.66 26.73 48.66 59.14"/><polyline class="cls-1" points="55 50.94 55 27.13 59.9 27.13 59.9 21.57 68.49 21.57"/><polyline class="cls-1" points="70.48 50.14 70.48 59.26 73.72 63.23 69.86 63.23 69.86 72.19 61.53 72.19 61.53 82.63"/><path class="cls-1" d="M40.08,50.6,34,43.22H25.21l-2.9-2.29.83-3.12,5.15-4.14,3.16-5.84,7.69-.41,9.25,11.85V50.56Z"/><polygon class="cls-1" points="41.04 29.4 47.92 28.78 46.95 31.25 43.87 33.33 41.04 29.4"/><path class="cls-2" d="M32.17,27.81a10.41,10.41,0,0,1,4-6.09,12.08,12.08,0,0,0,4-3.56,3.24,3.24,0,0,0,.4-1.78,2.67,2.67,0,0,1,.17,2.5,55.38,55.38,0,0,1-5.06,5.86A37.15,37.15,0,0,1,32.17,27.81Z"/><path d="M31,29.32l.34-1.68A11.19,11.19,0,0,1,35.7,21a12.09,12.09,0,0,0,3.74-3.27,2.62,2.62,0,0,0,.27-1.32v-3l1.64,2.52a3.57,3.57,0,0,1,.2,3.4c-.13.26-.36.65-.64,1.11-1.08,1.73-5.44,3.71-6.43,6.27-.12.31,1.76,0,1.73.08-1,1.38-4.15,1.55-4.43,1.68Zm7.12-7.86c-.42.32-.91.66-1.45,1a8.38,8.38,0,0,0-3,3.56,9.37,9.37,0,0,0,2.08-1.4,35.81,35.81,0,0,0,2.34-3.16Z"/><polygon class="cls-1" points="27.88 43.67 28 46.74 30.01 48.71 30.88 47.59 30.46 45.89 31.57 46.12 32.43 43.17 28.98 43.17 27.88 43.67"/><path class="cls-1" d="M33.11,27.57A11.2,11.2,0,0,1,44.42,21.1a3.57,3.57,0,0,0,3.08-1.37s.59,2.62-4.27,3.92-4.09,3.82-4.09,3.82Z"/><circle class="cls-3" cx="49.05" cy="47.82" r="40.57"/></svg>