<svg id="Layer_1" data-name="Layer 1" xmlns="http://www.w3.org/2000/svg" viewBox="0 0 47 61.39"><defs><style>.cls-1{fill:none;stroke:#d6d0c6;stroke-miterlimit:10;stroke-width:1.5px;}.cls-2{fill:#fff;}.cls-3{fill:#d6d0c6;}</style></defs><title>logo-lite</title><polyline class="cls-1" points="12.4 59.77 12.4 52.86 7.93 52.86 7.93 43.93 5.04 43.93 7.6 40.25 7.6 32 23.44 32 23.44 60.22"/><polyline class="cls-1" points="17.53 60.11 17.53 41.26 14.74 41.26 14.74 36.12 7.71 36.12"/><path class="cls-1" d="M23.67,53.3s6,.12,6-9.81c0,0,10-.34,12.5-11.83H33.26s-9.59,0-9.59,10Z"/><polyline class="cls-1" points="33.26 31.66 33.26 24.3 40.4 24.3 40.4 15.6 43.3 15.6 40.51 11.58 40.51 3.32 23.78 3.32 23.78 11.91 23.78 39.25"/><polyline class="cls-1" points="29.13 32.33 29.13 12.25 33.26 12.25 33.26 7.56 40.51 7.56"/><polyline class="cls-1" points="42.19 31.66 42.19 39.35 44.92 42.7 41.67 42.7 41.67 50.26 34.64 50.26 34.64 59.07"/><path class="cls-1" d="M16.54,32.05l-5.17-6.23H4L1.55,23.89l.7-2.63,4.35-3.5,2.66-4.92,6.49-.35,7.8,10v9.52Z"/><polygon class="cls-1" points="17.35 14.16 23.16 13.64 22.34 15.72 19.74 17.48 17.35 14.16"/><path class="cls-2" d="M9.87,12.82a8.78,8.78,0,0,1,3.39-5.14,10.12,10.12,0,0,0,3.4-3A2.73,2.73,0,0,0,17,3.18a2.25,2.25,0,0,1,.14,2.11,46.9,46.9,0,0,1-4.27,4.94A31.45,31.45,0,0,1,9.87,12.82Z"/><path class="cls-3" d="M8.86,14.09l.28-1.41a9.45,9.45,0,0,1,3.71-5.63A10.2,10.2,0,0,0,16,4.29a2.16,2.16,0,0,0,.23-1.11V.65l1.38,2.12a3,3,0,0,1,.17,2.87c-.11.22-.3.55-.54.94-.91,1.46-4.59,3.13-5.42,5.29-.1.26,1.48,0,1.46.06-.81,1.17-3.5,1.31-3.74,1.42Zm6-6.63c-.35.27-.76.56-1.22.85a7.05,7.05,0,0,0-2.49,3,8,8,0,0,0,1.76-1.18A32.55,32.55,0,0,0,14.88,7.46Z"/><polygon class="cls-1" points="6.25 26.2 6.35 28.79 8.05 30.45 8.78 29.51 8.43 28.07 9.36 28.27 10.09 25.78 7.18 25.78 6.25 26.2"/><path class="cls-1" d="M10.66,12.62A9.45,9.45,0,0,1,20.2,7.16,3,3,0,0,0,22.8,6s.5,2.21-3.6,3.31-3.45,3.22-3.45,3.22Z"/></svg>