<svg id="Layer_1" data-name="Layer 1" xmlns="http://www.w3.org/2000/svg" viewBox="0 0 48 61.29"><defs><style>.cls-1{fill:none;stroke:#000;stroke-miterlimit:10;stroke-width:1.5px;}.cls-2{fill:#fff;}</style></defs><title>logo-blk</title><polyline class="cls-1" points="12.98 59.88 12.98 52.96 8.51 52.96 8.51 44.03 5.61 44.03 8.18 40.35 8.18 32.1 24.02 32.1 24.02 60.32"/><polyline class="cls-1" points="18.11 60.21 18.11 41.36 15.32 41.36 15.32 36.23 8.29 36.23"/><path class="cls-1" d="M24.24,53.41s6,.11,6-9.82c0,0,10-.34,12.49-11.83H33.84s-9.6,0-9.6,10Z"/><polyline class="cls-1" points="33.84 31.76 33.84 24.4 40.98 24.4 40.98 15.7 43.88 15.7 41.09 11.68 41.09 3.42 24.36 3.42 24.36 12.02 24.36 39.35"/><polyline class="cls-1" points="29.71 32.43 29.71 12.35 33.84 12.35 33.84 7.66 41.09 7.66"/><polyline class="cls-1" points="42.77 31.76 42.77 39.45 45.5 42.8 42.25 42.8 42.25 50.36 35.22 50.36 35.22 59.17"/><path class="cls-1" d="M17.12,32.15,12,25.92H4.58L2.13,24l.7-2.63,4.35-3.5,2.66-4.92,6.49-.35,7.8,10v9.52Z"/><polygon class="cls-1" points="17.93 14.26 23.74 13.74 22.91 15.82 20.32 17.58 17.93 14.26"/><path class="cls-2" d="M10.45,12.92a8.73,8.73,0,0,1,3.39-5.14,10.12,10.12,0,0,0,3.4-3,2.73,2.73,0,0,0,.32-1.47A2.26,2.26,0,0,1,17.7,5.4a49.08,49.08,0,0,1-4.27,4.93A31.45,31.45,0,0,1,10.45,12.92Z"/><path d="M9.43,14.2l.29-1.42a9.42,9.42,0,0,1,3.71-5.63,10,10,0,0,0,3.15-2.76,2.16,2.16,0,0,0,.23-1.11V.75l1.38,2.12a3,3,0,0,1,.17,2.87c-.11.22-.31.55-.55.94-.9,1.47-4.58,3.13-5.41,5.29-.1.26,1.48,0,1.46.06-.81,1.17-3.5,1.31-3.74,1.42Zm6-6.63c-.36.26-.76.55-1.22.84a7.11,7.11,0,0,0-2.49,3,8,8,0,0,0,1.76-1.18A32,32,0,0,0,15.46,7.57Z"/><polygon class="cls-1" points="6.83 26.3 6.93 28.89 8.63 30.55 9.36 29.61 9.01 28.17 9.94 28.38 10.67 25.89 7.76 25.89 6.83 26.3"/><path class="cls-1" d="M11.23,12.72a9.45,9.45,0,0,1,9.55-5.45,3,3,0,0,0,2.6-1.2s.5,2.2-3.6,3.3-3.45,3.22-3.45,3.22Z"/></svg>