<svg xmlns="http://www.w3.org/2000/svg" viewBox="0 0 382.03 69.38"><defs><style>.a{fill:#fff;}</style></defs><title>tl_scroll_prompt</title><path class="a" d="M73.72,6.44a4.33,4.33,0,0,1,3.21.67,2.85,2.85,0,0,1,1.5,2.45q0,1-.57,1.1t-1.18-.87a4.06,4.06,0,0,0-1.18-1.25,1.81,1.81,0,0,0-.68-.25,4,4,0,0,0-1,.13,4.37,4.37,0,0,0-2.93,2.47,3.43,3.43,0,0,0-.34.87,2.59,2.59,0,0,0,.11.87A8.31,8.31,0,0,0,71.14,14a7.76,7.76,0,0,0,1.33,1.46q1.14,1.08,2.32,2a16.78,16.78,0,0,1,2.28,2.26,7,7,0,0,1,1.29,2,7.25,7.25,0,0,1,.3,3,5.88,5.88,0,0,1-1.18,2.64,4.12,4.12,0,0,1-1.16,1.1,6.92,6.92,0,0,1-1.81.68,7.9,7.9,0,0,1-1.23.21,4.73,4.73,0,0,1-1.12-.13,4.77,4.77,0,0,1-2.32-1.16,2.68,2.68,0,0,1-.84-2q0-1.06.49-1.23t.95.7a10.76,10.76,0,0,0,.76,1.14,1.22,1.22,0,0,0,.59.46,7,7,0,0,0,1.35.08h1.52l.95-1a8.07,8.07,0,0,0,1.14-1.37,2.85,2.85,0,0,0-.19-2.49,9.67,9.67,0,0,0-2.24-3,32,32,0,0,0-2.43-2.13,8.42,8.42,0,0,1-2.39-2.43,6.75,6.75,0,0,1-.57-3.12v-1.6l.91-1.37a7.82,7.82,0,0,1,1-1.2,3.38,3.38,0,0,1,1-.55A8.29,8.29,0,0,1,73.72,6.44Z" transform="translate(0 -3.48)"/><path class="a" d="M84.82,15.64q1.44-.23,1.86.27a4.35,4.35,0,0,1,.59,1.42,6.81,6.81,0,0,1,.32,1.73q0,.76-.25,1t-.78-.17a1.42,1.42,0,0,1-.72-1,2.92,2.92,0,0,0-.29-1,.73.73,0,0,0-.59-.3.83.83,0,0,0-.51.19,5,5,0,0,0-.74.84,7.87,7.87,0,0,0-1,1.79,7.16,7.16,0,0,0-.38,2.09,5.49,5.49,0,0,0,0,1.79,3.34,3.34,0,0,0,.76,1.22,2.56,2.56,0,0,0,.74.63,3.78,3.78,0,0,0,1.08.09A4.31,4.31,0,0,0,86,26a5.31,5.31,0,0,0,1.1-.49,4.52,4.52,0,0,1,1-.49.82.82,0,0,1,.55,0,.83.83,0,0,1,.42.8,1.79,1.79,0,0,1-1,1.5,4.69,4.69,0,0,1-2.32.68,5.72,5.72,0,0,1-2.49-.44,4.05,4.05,0,0,1-1.5-1.29,6.15,6.15,0,0,1-.85-2.13,7.27,7.27,0,0,1-.27-1.48,5.75,5.75,0,0,1,.23-1.29A16.62,16.62,0,0,1,81.63,19a9.44,9.44,0,0,1,.84-1.75,5.54,5.54,0,0,1,1.12-1A2.84,2.84,0,0,1,84.82,15.64Z" transform="translate(0 -3.48)"/><path class="a" d="M91.32,14.08a.76.76,0,0,1,.65-.3.87.87,0,0,1,.68.3,6.5,6.5,0,0,1,.23,2.19,8.92,8.92,0,0,1-.15,2.45c-.1.3-.09.46,0,.46s.46-.28.68-.76a4.68,4.68,0,0,1,2.11-2.24,5.23,5.23,0,0,1,3.1-.68q1.52.19,1.5.72t-1.58,1a6.7,6.7,0,0,0-3.19,1.67A11.9,11.9,0,0,0,94.2,22a31.82,31.82,0,0,0-.95,4.67,3,3,0,0,1-.38,1.37c-.13.18-.23.27-.32.27A1.62,1.62,0,0,1,92,28.1a1.4,1.4,0,0,1-.59-.44,3,3,0,0,1-.3-1A13.27,13.27,0,0,1,91,24.38q0-1.44,0-4Q91,14.42,91.32,14.08Z" transform="translate(0 -3.48)"/><path class="a" d="M105,14.73a3.7,3.7,0,0,1,1.58-.67,2.75,2.75,0,0,1,1.69.09,4.78,4.78,0,0,1,1.56,1.37A6.49,6.49,0,0,1,111.44,20a12.1,12.1,0,0,1-2.22,5.62,5.5,5.5,0,0,1-1.29,1.54,2.53,2.53,0,0,1-1.48.4,3.26,3.26,0,0,1-1.44-.27,4.28,4.28,0,0,1-1.22-1.06,7.14,7.14,0,0,1-1.37-2.11,7.82,7.82,0,0,1-.34-2.6,9.4,9.4,0,0,1,1.63-5.21A7,7,0,0,1,105,14.73Zm3,1.18a1.32,1.32,0,0,0-1-.19,4.24,4.24,0,0,0-1.18,1,7.12,7.12,0,0,0-2.13,5.24,7.09,7.09,0,0,0,.1,1.44,4.25,4.25,0,0,0,.51,1.06q2.05,3.38,4.71-1.71a9.32,9.32,0,0,0,.65-1.5,6.51,6.51,0,0,0,.11-1.46,6.89,6.89,0,0,0-.09-1.39,4.18,4.18,0,0,0-.55-1.12A3.5,3.5,0,0,0,108,15.9Z" transform="translate(0 -3.48)"/><path class="a" d="M117,4.16q.8-.72,1.1-.68.84.19,1.18,2.66a26.55,26.55,0,0,1-.87,10.18,24.31,24.31,0,0,0-.65,3,26.35,26.35,0,0,0,.85,3.33q.85,2.94,1.16,3.67a4.57,4.57,0,0,1,.36,1.35,1.07,1.07,0,0,1-.17.86c-.15.15-.41.14-.76,0a1.93,1.93,0,0,1-.84-.82,7,7,0,0,1-.49-1.8,16.55,16.55,0,0,0-.68-2.53q-.38-1-.65-1t-.27.23a3.89,3.89,0,0,1-.61,1.44,3.66,3.66,0,0,1-1,1.25.68.68,0,0,1-.46.15,1.26,1.26,0,0,1-.46-.34l-.46-.46.42-.84,1.18-2.2a7.24,7.24,0,0,0,.65-1.37,7,7,0,0,0,.15-1.41,8.32,8.32,0,0,0-.3-2.36,23.3,23.3,0,0,1-.8-6.42,19.66,19.66,0,0,1,.17-2.22,6.63,6.63,0,0,1,.63-1.5A7.63,7.63,0,0,1,117,4.16Zm.8,3.12c-.13-.38-.24-.59-.34-.65s-.25,0-.46.27a2.31,2.31,0,0,0-.61,1.2,20.66,20.66,0,0,0-.11,2.76q0,4.33.72,4.26a.74.74,0,0,0,.34-.27q.3-.34.48-3.57A19.4,19.4,0,0,0,117.8,7.28Z" transform="translate(0 -3.48)"/><path class="a" d="M125.7,4.16c.53-.48.9-.71,1.1-.68q.83.19,1.18,2.66a26.53,26.53,0,0,1-.87,10.18,24.37,24.37,0,0,0-.65,3,26.39,26.39,0,0,0,.85,3.33q.86,2.94,1.16,3.67a4.56,4.56,0,0,1,.36,1.35,1.08,1.08,0,0,1-.17.86c-.15.15-.41.14-.76,0a1.92,1.92,0,0,1-.84-.82,6.93,6.93,0,0,1-.49-1.8,16.55,16.55,0,0,0-.68-2.53q-.38-1-.65-1t-.27.23a3.89,3.89,0,0,1-.61,1.44,3.66,3.66,0,0,1-1,1.25.68.68,0,0,1-.46.15,1.26,1.26,0,0,1-.46-.34l-.46-.46.42-.84,1.18-2.2a7.24,7.24,0,0,0,.65-1.37,7,7,0,0,0,.15-1.41,8.32,8.32,0,0,0-.3-2.36,23.3,23.3,0,0,1-.8-6.42,19.66,19.66,0,0,1,.17-2.22,6.63,6.63,0,0,1,.63-1.5A7.63,7.63,0,0,1,125.7,4.16Zm.8,3.12c-.13-.38-.24-.59-.34-.65s-.25,0-.46.27a2.31,2.31,0,0,0-.61,1.2,20.66,20.66,0,0,0-.11,2.76q0,4.33.72,4.26a.74.74,0,0,0,.34-.27q.3-.34.48-3.57A19.39,19.39,0,0,0,126.5,7.28Z" transform="translate(0 -3.48)"/><path class="a" d="M150.21,14.27a1,1,0,0,1,.38-.36A.52.52,0,0,1,151,14q1,.42.3,3.34l-.25,1.12a5.14,5.14,0,0,0-.11.72,2,2,0,0,0,0,.4.12.12,0,0,0,.13.11q.3,0,1.75-2.43a7.89,7.89,0,0,1,1.48-2.09,1.22,1.22,0,0,1,.84-.27.83.83,0,0,1,.65.38,6.34,6.34,0,0,1,.53,1.42q.27,1,.55,2.53t.36,1.9q1.25,5.05-.19,6.08-.68.49-.87-.15a12.71,12.71,0,0,1-.3-2.66,18.52,18.52,0,0,0-.61-4.33q-.38-1.37-.51-1.71t-.32-.34q-.19,0-1.1,1.41A16.89,16.89,0,0,0,152,21.72a31.09,31.09,0,0,1-2.51,5.21.94.94,0,0,1-.72.34q-1.33,0-.84-2.74.95-5.13,1.41-7a13.59,13.59,0,0,0,.34-2A2.76,2.76,0,0,1,150.21,14.27Z" transform="translate(0 -3.48)"/><path class="a" d="M162.72,14.73a3.7,3.7,0,0,1,1.58-.67,2.75,2.75,0,0,1,1.69.09,4.78,4.78,0,0,1,1.56,1.37A6.49,6.49,0,0,1,169.12,20a12.1,12.1,0,0,1-2.22,5.62,5.52,5.52,0,0,1-1.29,1.54,2.53,2.53,0,0,1-1.48.4,3.26,3.26,0,0,1-1.44-.27,4.28,4.28,0,0,1-1.22-1.06,7.16,7.16,0,0,1-1.37-2.11,7.84,7.84,0,0,1-.34-2.6,9.41,9.41,0,0,1,1.63-5.21A7.05,7.05,0,0,1,162.72,14.73Zm3,1.18a1.32,1.32,0,0,0-.95-.19,4.25,4.25,0,0,0-1.18,1,7.13,7.13,0,0,0-2.13,5.24,7,7,0,0,0,.1,1.44,4.23,4.23,0,0,0,.51,1.06q2.05,3.38,4.71-1.71a9.21,9.21,0,0,0,.65-1.5,6.5,6.5,0,0,0,.11-1.46,6.93,6.93,0,0,0-.09-1.39,4.19,4.19,0,0,0-.55-1.12A3.5,3.5,0,0,0,165.68,15.9Z" transform="translate(0 -3.48)"/><path class="a" d="M171.38,14.08a.76.76,0,0,1,.65-.3.87.87,0,0,1,.68.3,6.5,6.5,0,0,1,.23,2.19,8.93,8.93,0,0,1-.15,2.45c-.1.3-.09.46,0,.46s.46-.28.68-.76a4.68,4.68,0,0,1,2.11-2.24,5.23,5.23,0,0,1,3.1-.68q1.52.19,1.5.72t-1.58,1a6.7,6.7,0,0,0-3.19,1.67A11.88,11.88,0,0,0,174.27,22a31.82,31.82,0,0,0-1,4.67,3,3,0,0,1-.38,1.37c-.13.18-.23.27-.32.27a1.62,1.62,0,0,1-.55-.23,1.39,1.39,0,0,1-.59-.44,3,3,0,0,1-.3-1,13.29,13.29,0,0,1-.11-2.24q0-1.44,0-4Q171.11,14.42,171.38,14.08Z" transform="translate(0 -3.48)"/><path class="a" d="M187.95,15.29a.89.89,0,0,1,1-.13,2.08,2.08,0,0,1,.8,1.12,8,8,0,0,1,.46,2.2,3,3,0,0,0,.23,1q.15.29.4.13a1.7,1.7,0,0,0,.51-.72q.38-.76,1.06-1.88t1-1.46q.23-.3,1-.3a1.3,1.3,0,0,1,.7.11,2.35,2.35,0,0,1,.36.8q.23.72.53,2.09.19,1.1.53,2.43a24.11,24.11,0,0,1,.57,3,9.15,9.15,0,0,1,.08,2.28,2.26,2.26,0,0,1-.55,1.24q-.44.48-.82.25a1,1,0,0,1-.44-.78,18.57,18.57,0,0,1-.13-2.15,19.6,19.6,0,0,0-.49-4.1q-.49-2.28-.87-2.26t-1.42,2.18A19.47,19.47,0,0,0,191,24.11a5.52,5.52,0,0,1-.49,1.31.66.66,0,0,1-.57.36.72.72,0,0,1-.74-.61,18.22,18.22,0,0,1-.29-3,26.5,26.5,0,0,0-.23-3.19,1.5,1.5,0,0,0-.53-1.06c-.2-.13-.41-.08-.61.15a31.56,31.56,0,0,0-1.82,3.65,39.43,39.43,0,0,0-1.67,4,4,4,0,0,1-.36.89.92.92,0,0,1-.53.46q-.32.1-.67-.36a1.78,1.78,0,0,1-.32-.74,11.19,11.19,0,0,1,0-1.73q.08-1,.29-2.37a20.4,20.4,0,0,0,.21-3,14.58,14.58,0,0,1,.13-2.36,1.56,1.56,0,0,1,.55-1,.62.62,0,0,1,.74,0,1,1,0,0,1,.47.72,9.94,9.94,0,0,1,.11,1.67q0,1.06.15,1.06.42,0,1.82-2.13A7.36,7.36,0,0,1,187.95,15.29Z" transform="translate(0 -3.48)"/><path class="a" d="M203.53,16.74a3.89,3.89,0,0,1,2,0,1.57,1.57,0,0,1,.86.46,1.82,1.82,0,0,1,.29,1q0,.53.15,1.42t.27,2q.15,1.08.23,1.46a9.13,9.13,0,0,0,.38,2,1.3,1.3,0,0,0,.68.67,1.11,1.11,0,0,1,.47.36,1.56,1.56,0,0,1,.09.67,1.74,1.74,0,0,1-.19.93.76.76,0,0,1-.68.29,1.33,1.33,0,0,1-1-.42,4,4,0,0,1-.74-1.44q-.38-1.25-.61-1.25t-.8.76a8.93,8.93,0,0,1-1.67,1.92,2.55,2.55,0,0,1-1.56.48,2.11,2.11,0,0,1-2.13-1.37A5.25,5.25,0,0,1,199.1,25a7.39,7.39,0,0,1,.17-1.9,12.68,12.68,0,0,1,1.67-4.33A4.32,4.32,0,0,1,203.53,16.74ZM205,19.4a2.39,2.39,0,0,0-.29-.74.62.62,0,0,0-.44-.21,2,2,0,0,0-1.6.72,10,10,0,0,0-1.08,1.62,6.68,6.68,0,0,0-.74,1.73,7.11,7.11,0,0,0-.23,1.94,3.9,3.9,0,0,0,.23,1.6q.49,1.14,1.94-.27a11,11,0,0,0,1.9-2.77,4.59,4.59,0,0,0,.51-1.71A6.35,6.35,0,0,0,205,19.4Z" transform="translate(0 -3.48)"/><path class="a" d="M214.51,4.16q.8-.72,1.1-.68.83.19,1.18,2.66a26.53,26.53,0,0,1-.87,10.18,24.37,24.37,0,0,0-.65,3,26.39,26.39,0,0,0,.85,3.33q.86,2.94,1.16,3.67a4.56,4.56,0,0,1,.36,1.35,1.08,1.08,0,0,1-.17.86c-.15.15-.41.14-.76,0a1.92,1.92,0,0,1-.84-.82,6.93,6.93,0,0,1-.49-1.8,16.55,16.55,0,0,0-.68-2.53q-.38-1-.65-1t-.27.23a3.9,3.9,0,0,1-.61,1.44,3.68,3.68,0,0,1-1,1.25.68.68,0,0,1-.46.15,1.26,1.26,0,0,1-.46-.34l-.46-.46.42-.84,1.18-2.2a7.25,7.25,0,0,0,.65-1.37,7.1,7.1,0,0,0,.15-1.41,8.29,8.29,0,0,0-.3-2.36,23.32,23.32,0,0,1-.8-6.42,19.66,19.66,0,0,1,.17-2.22,6.69,6.69,0,0,1,.63-1.5A7.64,7.64,0,0,1,214.51,4.16Zm.8,3.12c-.13-.38-.24-.59-.34-.65s-.25,0-.46.27a2.3,2.3,0,0,0-.61,1.2,20.54,20.54,0,0,0-.11,2.76q0,4.33.72,4.26a.74.74,0,0,0,.34-.27q.3-.34.47-3.57A19.42,19.42,0,0,0,215.31,7.28Z" transform="translate(0 -3.48)"/><path class="a" d="M223.21,4.16q.8-.72,1.1-.68.83.19,1.18,2.66a26.53,26.53,0,0,1-.87,10.18,24.37,24.37,0,0,0-.65,3,26.39,26.39,0,0,0,.85,3.33q.86,2.94,1.16,3.67a4.56,4.56,0,0,1,.36,1.35,1.08,1.08,0,0,1-.17.86c-.15.15-.41.14-.76,0a1.92,1.92,0,0,1-.84-.82,6.93,6.93,0,0,1-.49-1.8,16.55,16.55,0,0,0-.68-2.53q-.38-1-.65-1t-.27.23a3.9,3.9,0,0,1-.61,1.44,3.68,3.68,0,0,1-1,1.25.68.68,0,0,1-.46.15A1.26,1.26,0,0,1,220,25l-.46-.46.42-.84,1.18-2.2a7.25,7.25,0,0,0,.65-1.37,7.1,7.1,0,0,0,.15-1.41,8.29,8.29,0,0,0-.3-2.36,23.32,23.32,0,0,1-.8-6.42A19.66,19.66,0,0,1,221,7.75a6.69,6.69,0,0,1,.63-1.5A7.64,7.64,0,0,1,223.21,4.16Zm.8,3.12c-.13-.38-.24-.59-.34-.65s-.25,0-.46.27a2.3,2.3,0,0,0-.61,1.2,20.54,20.54,0,0,0-.11,2.76q0,4.33.72,4.26a.74.74,0,0,0,.34-.27q.3-.34.47-3.57A19.42,19.42,0,0,0,224,7.28Z" transform="translate(0 -3.48)"/><path class="a" d="M228.61,14.84q.49-.61.91,0a15.09,15.09,0,0,1,.49,4.33q.19,4.52.72,4.52.23,0,.72-.68a8.82,8.82,0,0,0,.89-1.65,7.1,7.1,0,0,0,.36-1.62,16.59,16.59,0,0,1,.72-4.26q.65-.76.84.76a26.61,26.61,0,0,1-.3,5.05q-.23,2.28-.34,3.61-.61,6.08-.68,7.22l-.11,2.09h-1.63l.11-1.79a45.69,45.69,0,0,1,.57-6.57,1,1,0,0,0,0-.44s-.14,0-.34,0a4.18,4.18,0,0,1-1.18.23q-.68.08-.91-.23a5.56,5.56,0,0,1-.53-1.63,26,26,0,0,1-.67-5.4Q228.19,15.37,228.61,14.84Z" transform="translate(0 -3.48)"/><path class="a" d="M257.79,16.74a3.89,3.89,0,0,1,2,0,1.57,1.57,0,0,1,.86.46,1.82,1.82,0,0,1,.29,1q0,.53.15,1.42t.27,2q.15,1.08.23,1.46a9.17,9.17,0,0,0,.38,2,1.3,1.3,0,0,0,.68.67,1.11,1.11,0,0,1,.47.36,1.56,1.56,0,0,1,.09.67,1.74,1.74,0,0,1-.19.93.76.76,0,0,1-.68.29,1.33,1.33,0,0,1-1-.42,4,4,0,0,1-.74-1.44q-.38-1.25-.61-1.25t-.8.76a8.93,8.93,0,0,1-1.67,1.92A2.55,2.55,0,0,1,256,28a2.11,2.11,0,0,1-2.13-1.37,5.25,5.25,0,0,1-.47-1.67,7.39,7.39,0,0,1,.17-1.9,12.68,12.68,0,0,1,1.67-4.33A4.32,4.32,0,0,1,257.79,16.74Zm1.52,2.66a2.39,2.39,0,0,0-.29-.74.62.62,0,0,0-.44-.21,2,2,0,0,0-1.6.72,10,10,0,0,0-1.08,1.62,6.68,6.68,0,0,0-.74,1.73,7.11,7.11,0,0,0-.23,1.94,3.9,3.9,0,0,0,.23,1.6q.49,1.14,1.94-.27A11,11,0,0,0,259,23a4.59,4.59,0,0,0,.51-1.71A6.35,6.35,0,0,0,259.31,19.4Z" transform="translate(0 -3.48)"/><path class="a" d="M269.64,13.78l.32-.08.36-.08a1.66,1.66,0,0,1,1,.27,3.12,3.12,0,0,1,1,.76,1.43,1.43,0,0,1,.38,1.75c-.13.25-.29.35-.49.3a2.47,2.47,0,0,1-.91-.72l-.72-.76-.8.23a1.81,1.81,0,0,0-1.18.87,4.83,4.83,0,0,0-.3,2,3.18,3.18,0,0,0,.25,1.63,5,5,0,0,0,1.69.84,4.7,4.7,0,0,1,1.67,1,2.64,2.64,0,0,1,.76,2,3,3,0,0,1-.87,2.07q-1.14,1.18-4.07.49a9,9,0,0,1-1.65-.46,1.88,1.88,0,0,1-.74-.74,1.07,1.07,0,0,1-.15-1,.76.76,0,0,1,.61-.44.49.49,0,0,1,.57.29q.27.76,2,1a2.78,2.78,0,0,0,2.36-.42,1.28,1.28,0,0,0,.34-1.06,1,1,0,0,0-.28-.65,8,8,0,0,0-1.35-.8,6.22,6.22,0,0,1-2.13-1.63,2.85,2.85,0,0,1-.46-.95,11.86,11.86,0,0,1-.08-1.75,5.53,5.53,0,0,1,.3-2.36,3.63,3.63,0,0,1,1.1-1A5,5,0,0,1,269.64,13.78Z" transform="translate(0 -3.48)"/><path class="a" d="M91.83,52.41a.77.77,0,0,1,.65-.38,1.21,1.21,0,0,1,.78.34.94.94,0,0,1,.4.68,23.42,23.42,0,0,1-.87,4,35.39,35.39,0,0,1-1.48,4.62A19,19,0,0,1,89.66,65a1.13,1.13,0,0,1-1.25.44,1.18,1.18,0,0,1-.74-.7,3.06,3.06,0,0,1-.29-1.35,15.94,15.94,0,0,0-.61-3.19q-.19-.76-.42-.76T84.61,63q-.46,1.18-1.06,2.51a3.37,3.37,0,0,1-.53.86,1.14,1.14,0,0,1-.66.21,1.18,1.18,0,0,1-.59,0,1.2,1.2,0,0,1-.27-.53,54.18,54.18,0,0,1-1.1-7.33,14.94,14.94,0,0,0-.38-2.2A4.94,4.94,0,0,1,79.82,55q0-.76.23-1a.79.79,0,0,1,.63-.21.87.87,0,0,1,.59.21,2.37,2.37,0,0,1,.3.91s.05.34.15.93.2,1.2.3,1.82.21,1.27.34,1.94.25,1.22.36,1.65.2.65.25.65a7.23,7.23,0,0,0,1.16-2.19,19.24,19.24,0,0,0,1.16-3.06q.27-1.29,1.29-1,.49.19,1.18,1.46a10.2,10.2,0,0,1,1,2.68l.21.7q.09.32.17.51c.05.13.09.18.11.15a2.79,2.79,0,0,0,.59-1,16.7,16.7,0,0,0,.7-1.71,19.34,19.34,0,0,0,.87-4.26A6.48,6.48,0,0,1,91.83,52.41Z" transform="translate(0 -3.48)"/><path class="a" d="M97.45,53.24a2,2,0,0,1,1.41-.49A2.51,2.51,0,0,1,101,53.81a11.6,11.6,0,0,1,.87,2,12.43,12.43,0,0,1,.65,2.19,2.18,2.18,0,0,1,0,.68.77.77,0,0,1-.36.38,9.27,9.27,0,0,1-2.47.72,19,19,0,0,0-2.2.53q-.23.15-.25,1.43a4.24,4.24,0,0,0,.21,1.73q.65,1.41,4.64.49a4,4,0,0,1,1-.17,1.08,1.08,0,0,1,.55.36l.46.46-.38.42a5.19,5.19,0,0,1-2.93,1.22,4.89,4.89,0,0,1-1.22.11A7.6,7.6,0,0,1,98.21,66a2.82,2.82,0,0,1-1.67-1,8.75,8.75,0,0,1-.85-3.42,9.27,9.27,0,0,1,0-3.42q.15-.38.76-2.47A6.84,6.84,0,0,1,97.45,53.24Zm2.77,2.36a2.06,2.06,0,0,0-.85-.95.58.58,0,0,0-.78.15,5.18,5.18,0,0,0-.68,1.27,3.68,3.68,0,0,0-.3,1.27,1.56,1.56,0,0,0,.08.65c.05.08.19.11.42.11a5.75,5.75,0,0,0,1.33-.23,4.56,4.56,0,0,0,1.1-.38Q101,57.08,100.22,55.6Z" transform="translate(0 -3.48)"/><path class="a" d="M127.24,54.23q1.44-.23,1.86.27a4.35,4.35,0,0,1,.59,1.42,6.81,6.81,0,0,1,.32,1.73q0,.76-.25,1t-.78-.17a1.42,1.42,0,0,1-.72-1,2.92,2.92,0,0,0-.29-1,.73.73,0,0,0-.59-.3.83.83,0,0,0-.51.19,5,5,0,0,0-.74.84,7.87,7.87,0,0,0-1,1.79,7.16,7.16,0,0,0-.38,2.09,5.49,5.49,0,0,0,0,1.79,3.34,3.34,0,0,0,.76,1.22,2.56,2.56,0,0,0,.74.63,3.78,3.78,0,0,0,1.08.09,4.31,4.31,0,0,0,1.1-.11,5.31,5.31,0,0,0,1.1-.49,4.52,4.52,0,0,1,1-.49.82.82,0,0,1,.55,0,.83.83,0,0,1,.42.8,1.79,1.79,0,0,1-1,1.5,4.69,4.69,0,0,1-2.32.68,5.72,5.72,0,0,1-2.49-.44,4.05,4.05,0,0,1-1.5-1.29,6.15,6.15,0,0,1-.85-2.13,7.27,7.27,0,0,1-.27-1.48,5.75,5.75,0,0,1,.23-1.29,16.62,16.62,0,0,1,.76-2.43,9.44,9.44,0,0,1,.84-1.75,5.54,5.54,0,0,1,1.12-1A2.84,2.84,0,0,1,127.24,54.23Z" transform="translate(0 -3.48)"/><path class="a" d="M136.36,53.32a3.7,3.7,0,0,1,1.58-.67,2.76,2.76,0,0,1,1.69.09,4.78,4.78,0,0,1,1.56,1.37,6.5,6.5,0,0,1,1.58,4.52,12.11,12.11,0,0,1-2.22,5.62,5.5,5.5,0,0,1-1.29,1.54,2.53,2.53,0,0,1-1.48.4,3.26,3.26,0,0,1-1.44-.27,4.28,4.28,0,0,1-1.22-1.06,7.14,7.14,0,0,1-1.37-2.11,7.82,7.82,0,0,1-.34-2.6A9.4,9.4,0,0,1,135,55,7,7,0,0,1,136.36,53.32Zm3,1.18a1.32,1.32,0,0,0-.95-.19,4.26,4.26,0,0,0-1.18,1,8,8,0,0,0-2,6.69,4.25,4.25,0,0,0,.51,1.06q2.05,3.38,4.71-1.71a9.18,9.18,0,0,0,.64-1.5,6.48,6.48,0,0,0,.12-1.46,6.91,6.91,0,0,0-.1-1.39,4.13,4.13,0,0,0-.55-1.12A3.51,3.51,0,0,0,139.33,54.5Z" transform="translate(0 -3.48)"/><path class="a" d="M147,52.86a1,1,0,0,1,.38-.36.52.52,0,0,1,.42.09q1,.42.3,3.34l-.25,1.12a5.14,5.14,0,0,0-.11.72,2,2,0,0,0,0,.4.12.12,0,0,0,.13.11q.3,0,1.75-2.43a7.89,7.89,0,0,1,1.48-2.09,1.22,1.22,0,0,1,.84-.27.83.83,0,0,1,.65.38,6.34,6.34,0,0,1,.53,1.42q.27,1,.55,2.53t.36,1.9q1.25,5.05-.19,6.08-.68.49-.87-.15a12.71,12.71,0,0,1-.3-2.66,18.52,18.52,0,0,0-.61-4.33q-.38-1.37-.51-1.71t-.32-.34q-.19,0-1.1,1.41a16.89,16.89,0,0,0-1.29,2.28,31.09,31.09,0,0,1-2.51,5.21.94.94,0,0,1-.72.34q-1.33,0-.84-2.74.95-5.13,1.41-7a13.59,13.59,0,0,0,.34-2A2.76,2.76,0,0,1,147,52.86Z" transform="translate(0 -3.48)"/><path class="a" d="M161.59,46q.19-.23.61,0a1.19,1.19,0,0,1,.61.61,3.17,3.17,0,0,1,.06,1.37,12.85,12.85,0,0,1-.32,2,.54.54,0,0,0,.21.59,2.34,2.34,0,0,0,1.08.28,3.38,3.38,0,0,1,1.24.46q.55.34.55.72c0,.23-.21.45-.63.67a4.48,4.48,0,0,1-1.42.44q-1.1.11-1.25.3a9.36,9.36,0,0,0-.49,3.17,16.2,16.2,0,0,0,.11,3.89q.38,2.05.55,3.1a8.12,8.12,0,0,1,.13,1.71c0,.44-.11.72-.25.82a1.32,1.32,0,0,1-.74.15.8.8,0,0,1-.76-.42,2.9,2.9,0,0,1-.19-1.41,9.42,9.42,0,0,0-.23-2.32,29.66,29.66,0,0,1-.27-5.05l0-3.8-1.52-.11a3.79,3.79,0,0,1-1.65-.34,1.06,1.06,0,0,1-.4-1A.78.78,0,0,1,157,51a5,5,0,0,1,1.73-.25,5.2,5.2,0,0,0,1.86-.27,1.25,1.25,0,0,0,.23-.87,11.43,11.43,0,0,1,.29-2A5.32,5.32,0,0,1,161.59,46Z" transform="translate(0 -3.48)"/><path class="a" d="M168.21,56.66a1,1,0,0,1,.8-.23q.46,0,.55.11a2.18,2.18,0,0,1,.21.72,6.5,6.5,0,0,1-.11,2.05A18.93,18.93,0,0,0,169.5,63a7,7,0,0,1-.11,2.85.66.66,0,0,1-.68.27,1.36,1.36,0,0,1-.8-.57,2,2,0,0,1-.3-.78,13.21,13.21,0,0,1-.08-1.8,40,40,0,0,1,.19-4.18A5.33,5.33,0,0,1,168.21,56.66Zm.19-6.27a1,1,0,0,1,1.31.4q.59.74,0,1.27a1.7,1.7,0,0,1-.82.4.65.65,0,0,1-.66-.13,1.39,1.39,0,0,1-.27-1.08A1,1,0,0,1,168.39,50.39Z" transform="translate(0 -3.48)"/><path class="a" d="M174.21,52.86a1,1,0,0,1,.38-.36.52.52,0,0,1,.42.09q1,.42.3,3.34l-.25,1.12a5.14,5.14,0,0,0-.11.72,2,2,0,0,0,0,.4.12.12,0,0,0,.13.11q.3,0,1.75-2.43a7.89,7.89,0,0,1,1.48-2.09,1.22,1.22,0,0,1,.84-.27.83.83,0,0,1,.65.38,6.34,6.34,0,0,1,.53,1.42q.27,1,.55,2.53t.36,1.9q1.25,5.05-.19,6.08-.68.49-.87-.15a12.71,12.71,0,0,1-.3-2.66,18.52,18.52,0,0,0-.61-4.33q-.38-1.37-.51-1.71t-.32-.34q-.19,0-1.1,1.41A16.89,16.89,0,0,0,176,60.31a31.09,31.09,0,0,1-2.51,5.21.94.94,0,0,1-.72.34q-1.33,0-.84-2.74.95-5.13,1.41-7a13.59,13.59,0,0,0,.34-2A2.76,2.76,0,0,1,174.21,52.86Z" transform="translate(0 -3.48)"/><path class="a" d="M191,53a.92.92,0,0,1,1.29,0,1.73,1.73,0,0,1,.23,1.06q0,.49-.15,4.86-.08,3,0,3.67a4,4,0,0,0,.42,1.42l.46,1-.42.38a1.31,1.31,0,0,1-.84.42,1.4,1.4,0,0,1-.84-.44q-.49-.44-.49-.7t-1.06.8a7.81,7.81,0,0,1-1,.87,1.84,1.84,0,0,1-.86.27,2.51,2.51,0,0,1-2.74-.87,9.11,9.11,0,0,1-.95-3,8.57,8.57,0,0,1-.15-3.12,16.55,16.55,0,0,0,.15-3.27,10.11,10.11,0,0,1,.08-2.66c.1-.15.35-.23.76-.23a.81.81,0,0,1,.53.11,1.4,1.4,0,0,1,.23.57,39.89,39.89,0,0,1,.11,5q0,3.12,0,3.78a2.2,2.2,0,0,0,.38,1.16q.46.72,1,.7a2.3,2.3,0,0,0,1.33-.82,5.38,5.38,0,0,0,1.25-2.07,19.62,19.62,0,0,0,.65-3.71Q190.7,53.36,191,53Z" transform="translate(0 -3.48)"/><path class="a" d="M197,53.24a2,2,0,0,1,1.41-.49,2.51,2.51,0,0,1,2.17,1.06,11.56,11.56,0,0,1,.87,2A12.32,12.32,0,0,1,202.1,58a2.19,2.19,0,0,1,0,.68.76.76,0,0,1-.36.38,9.27,9.27,0,0,1-2.47.72,18.89,18.89,0,0,0-2.2.53q-.23.15-.25,1.43A4.22,4.22,0,0,0,197,63.5q.65,1.41,4.64.49a4,4,0,0,1,1-.17,1.07,1.07,0,0,1,.55.36l.46.46-.38.42a5.18,5.18,0,0,1-2.93,1.22,4.89,4.89,0,0,1-1.22.11,7.59,7.59,0,0,1-1.33-.34,2.82,2.82,0,0,1-1.67-1,8.76,8.76,0,0,1-.86-3.42,9.28,9.28,0,0,1,0-3.42q.15-.38.76-2.47A6.82,6.82,0,0,1,197,53.24Zm2.77,2.36a2.06,2.06,0,0,0-.85-.95.58.58,0,0,0-.78.15,5.15,5.15,0,0,0-.68,1.27,3.69,3.69,0,0,0-.3,1.27,1.55,1.55,0,0,0,.08.65c.05.08.19.11.42.11a5.75,5.75,0,0,0,1.33-.23,4.57,4.57,0,0,0,1.1-.38Q200.58,57.08,199.78,55.6Z" transform="translate(0 -3.48)"/><path class="a" d="M223.3,42.38a.73.73,0,0,1,.65-.34.66.66,0,0,1,.47.13,1.37,1.37,0,0,1,.21.68,9.12,9.12,0,0,1,.06,1.41q0,.86-.09,2.6-.15,2.73-.3,7.94,0,2.62,0,3.33t.19.7q.27,0,.84-.8,1.37-2,2.7-2a2,2,0,0,1,1.27.4,4,4,0,0,1,1,1.46,7.88,7.88,0,0,1,.8,2.34,16.38,16.38,0,0,1,.11,3.13,16.88,16.88,0,0,1-.11,2,1.53,1.53,0,0,1-.46.76q-.53.49-.84.3-.91-.57-.46-2.43a12.81,12.81,0,0,0,.23-2.62,7.12,7.12,0,0,0-.09-1.48,3.3,3.3,0,0,0-.55-1,3.53,3.53,0,0,0-.91-1q-.53-.19-1.33,1.08a16.48,16.48,0,0,0-1.52,3.4,20.19,20.19,0,0,1-1,2.62.87.87,0,0,1-.82.42c-.28,0-.45,0-.51-.11a2,2,0,0,1-.21-.68q-.08-.65,0-6.73t.23-11.13Q223,42.68,223.3,42.38Z" transform="translate(0 -3.48)"/><path class="a" d="M236.11,53.32a3.7,3.7,0,0,1,1.58-.67,2.75,2.75,0,0,1,1.69.09,4.78,4.78,0,0,1,1.56,1.37,6.49,6.49,0,0,1,1.58,4.52,12.1,12.1,0,0,1-2.22,5.62A5.52,5.52,0,0,1,239,65.8a2.53,2.53,0,0,1-1.48.4,3.26,3.26,0,0,1-1.44-.27,4.28,4.28,0,0,1-1.22-1.06,7.16,7.16,0,0,1-1.37-2.11,7.84,7.84,0,0,1-.34-2.6A9.41,9.41,0,0,1,234.78,55,7.05,7.05,0,0,1,236.11,53.32Zm3,1.18a1.32,1.32,0,0,0-.95-.19,4.25,4.25,0,0,0-1.18,1,7.13,7.13,0,0,0-2.13,5.24,7,7,0,0,0,.1,1.44,4.23,4.23,0,0,0,.51,1.06q2.05,3.38,4.71-1.71a9.21,9.21,0,0,0,.65-1.5,6.5,6.5,0,0,0,.11-1.46,6.93,6.93,0,0,0-.09-1.39,4.19,4.19,0,0,0-.55-1.12A3.5,3.5,0,0,0,239.07,54.5Z" transform="translate(0 -3.48)"/><path class="a" d="M244.77,52.67a.76.76,0,0,1,.65-.3.87.87,0,0,1,.68.3,6.5,6.5,0,0,1,.23,2.19,8.93,8.93,0,0,1-.15,2.45c-.1.3-.09.46,0,.46s.46-.28.68-.76A4.68,4.68,0,0,1,249,54.76a5.23,5.23,0,0,1,3.1-.68q1.52.19,1.5.72t-1.58,1a6.7,6.7,0,0,0-3.19,1.67,11.88,11.88,0,0,0-1.18,3.15,31.82,31.82,0,0,0-1,4.67,3,3,0,0,1-.38,1.37c-.13.18-.23.27-.32.27a1.62,1.62,0,0,1-.55-.23,1.39,1.39,0,0,1-.59-.44,3,3,0,0,1-.3-1,13.29,13.29,0,0,1-.11-2.24q0-1.44,0-4Q244.51,53,244.77,52.67Z" transform="translate(0 -3.48)"/><path class="a" d="M256.21,56.66a1,1,0,0,1,.8-.23q.46,0,.55.11a2.18,2.18,0,0,1,.21.72,6.5,6.5,0,0,1-.11,2.05A18.93,18.93,0,0,0,257.5,63a7,7,0,0,1-.11,2.85.66.66,0,0,1-.68.27,1.36,1.36,0,0,1-.8-.57,2,2,0,0,1-.3-.78,13.21,13.21,0,0,1-.08-1.8,40,40,0,0,1,.19-4.18A5.33,5.33,0,0,1,256.21,56.66Zm.19-6.27a1,1,0,0,1,1.31.4q.59.74,0,1.27a1.7,1.7,0,0,1-.82.4.65.65,0,0,1-.66-.13,1.39,1.39,0,0,1-.27-1.08A1,1,0,0,1,256.4,50.39Z" transform="translate(0 -3.48)"/><path class="a" d="M266.7,52.33a1.38,1.38,0,0,1,.63,0l.59.06q.27,0,.27.8a4.35,4.35,0,0,1-.27,1.52,20.36,20.36,0,0,1-1.71,3.08A26,26,0,0,1,264,60.92q-.91,1-.42,1.29a10.45,10.45,0,0,0,3.19.3,21.28,21.28,0,0,1,3.31.19,1.32,1.32,0,0,1,1.06,1.22c0,.25-.22.42-.65.49a4.4,4.4,0,0,1-1.6-.08,30.33,30.33,0,0,0-4.75-.11q-3.84.11-4.07-.11-.57-.57.87-2.2a47.43,47.43,0,0,0,3.89-4.75,5.34,5.34,0,0,0,1.12-2.62q0-.3-.38-.3a8.88,8.88,0,0,0-1.82.57,13.16,13.16,0,0,0-1.94.84,1.82,1.82,0,0,1-1,.23,1,1,0,0,1-.49-.08c-.08-.05-.11-.18-.11-.38q0-1.06,3.72-2.28A22,22,0,0,1,266.7,52.33Z" transform="translate(0 -3.48)"/><path class="a" d="M276,53.32a3.7,3.7,0,0,1,1.58-.67,2.75,2.75,0,0,1,1.69.09,4.78,4.78,0,0,1,1.56,1.37,6.49,6.49,0,0,1,1.58,4.52,12.1,12.1,0,0,1-2.22,5.62,5.52,5.52,0,0,1-1.29,1.54,2.53,2.53,0,0,1-1.48.4,3.26,3.26,0,0,1-1.44-.27,4.28,4.28,0,0,1-1.22-1.06,7.16,7.16,0,0,1-1.37-2.11,7.84,7.84,0,0,1-.34-2.6A9.41,9.41,0,0,1,274.64,55,7.05,7.05,0,0,1,276,53.32Zm3,1.18a1.32,1.32,0,0,0-.95-.19,4.25,4.25,0,0,0-1.18,1,7.13,7.13,0,0,0-2.13,5.24,7,7,0,0,0,.1,1.44,4.23,4.23,0,0,0,.51,1.06q2.05,3.38,4.71-1.71a9.21,9.21,0,0,0,.65-1.5,6.5,6.5,0,0,0,.11-1.46,6.93,6.93,0,0,0-.09-1.39,4.19,4.19,0,0,0-.55-1.12A3.5,3.5,0,0,0,278.93,54.5Z" transform="translate(0 -3.48)"/><path class="a" d="M286.65,52.86a1,1,0,0,1,.38-.36.52.52,0,0,1,.42.09q1,.42.3,3.34l-.25,1.12a5.14,5.14,0,0,0-.11.72,2,2,0,0,0,0,.4.12.12,0,0,0,.13.11q.3,0,1.75-2.43a7.89,7.89,0,0,1,1.48-2.09,1.22,1.22,0,0,1,.84-.27.83.83,0,0,1,.65.38,6.34,6.34,0,0,1,.53,1.42q.27,1,.55,2.53t.36,1.9q1.25,5.05-.19,6.08-.68.49-.87-.15a12.71,12.71,0,0,1-.3-2.66,18.52,18.52,0,0,0-.61-4.33q-.38-1.37-.51-1.71t-.32-.34q-.19,0-1.1,1.41a16.89,16.89,0,0,0-1.29,2.28A31.09,31.09,0,0,1,286,65.52a.94.94,0,0,1-.72.34q-1.33,0-.84-2.74.95-5.13,1.41-7a13.59,13.59,0,0,0,.34-2A2.76,2.76,0,0,1,286.65,52.86Z" transform="translate(0 -3.48)"/><path class="a" d="M301.2,46q.19-.23.61,0a1.19,1.19,0,0,1,.61.61,3.17,3.17,0,0,1,.06,1.37,12.85,12.85,0,0,1-.32,2,.54.54,0,0,0,.21.59,2.34,2.34,0,0,0,1.08.28,3.38,3.38,0,0,1,1.24.46q.55.34.55.72c0,.23-.21.45-.63.67a4.48,4.48,0,0,1-1.42.44q-1.1.11-1.25.3a9.36,9.36,0,0,0-.49,3.17,16.2,16.2,0,0,0,.11,3.89q.38,2.05.55,3.1a8.12,8.12,0,0,1,.13,1.71c0,.44-.11.72-.25.82a1.32,1.32,0,0,1-.74.15.8.8,0,0,1-.76-.42,2.9,2.9,0,0,1-.19-1.41,9.42,9.42,0,0,0-.23-2.32A29.66,29.66,0,0,1,299.8,57l0-3.8-1.52-.11a3.79,3.79,0,0,1-1.65-.34,1.06,1.06,0,0,1-.4-1,.78.78,0,0,1,.44-.78,5,5,0,0,1,1.73-.25,5.2,5.2,0,0,0,1.86-.27,1.25,1.25,0,0,0,.23-.87,11.43,11.43,0,0,1,.29-2A5.32,5.32,0,0,1,301.2,46Z" transform="translate(0 -3.48)"/><path class="a" d="M311.58,55.33a3.89,3.89,0,0,1,2,0,1.57,1.57,0,0,1,.86.46,1.82,1.82,0,0,1,.29,1q0,.53.15,1.42t.27,2q.15,1.08.23,1.46a9.13,9.13,0,0,0,.38,2,1.3,1.3,0,0,0,.68.67,1.11,1.11,0,0,1,.47.36,1.56,1.56,0,0,1,.09.67,1.74,1.74,0,0,1-.19.93.76.76,0,0,1-.68.29,1.33,1.33,0,0,1-1-.42,4,4,0,0,1-.74-1.44q-.38-1.25-.61-1.25t-.8.76a8.93,8.93,0,0,1-1.67,1.92,2.55,2.55,0,0,1-1.56.48,2.11,2.11,0,0,1-2.13-1.37,5.25,5.25,0,0,1-.47-1.67,7.39,7.39,0,0,1,.17-1.9A12.68,12.68,0,0,1,309,57.35,4.32,4.32,0,0,1,311.58,55.33ZM313.1,58a2.39,2.39,0,0,0-.29-.74.62.62,0,0,0-.44-.21,2,2,0,0,0-1.6.72,10,10,0,0,0-1.08,1.62,6.68,6.68,0,0,0-.74,1.73,7.11,7.11,0,0,0-.23,1.94,3.9,3.9,0,0,0,.23,1.6q.49,1.14,1.94-.27a11,11,0,0,0,1.9-2.77,4.59,4.59,0,0,0,.51-1.71A6.35,6.35,0,0,0,313.1,58Z" transform="translate(0 -3.48)"/><path class="a" d="M322.56,42.76q.8-.72,1.1-.68.83.19,1.18,2.66A26.53,26.53,0,0,1,324,54.92a24.37,24.37,0,0,0-.65,3,26.39,26.39,0,0,0,.85,3.33q.86,2.94,1.16,3.67a4.56,4.56,0,0,1,.36,1.35,1.08,1.08,0,0,1-.17.86c-.15.15-.41.14-.76,0a1.92,1.92,0,0,1-.84-.82,6.93,6.93,0,0,1-.49-1.8,16.55,16.55,0,0,0-.68-2.53q-.38-1-.65-1t-.27.23a3.9,3.9,0,0,1-.61,1.44,3.68,3.68,0,0,1-1,1.25.68.68,0,0,1-.46.15,1.26,1.26,0,0,1-.46-.34l-.46-.46.42-.84,1.18-2.2a7.25,7.25,0,0,0,.65-1.37,7.1,7.1,0,0,0,.15-1.41A8.29,8.29,0,0,0,321,55a23.32,23.32,0,0,1-.8-6.42,19.66,19.66,0,0,1,.17-2.22,6.69,6.69,0,0,1,.63-1.5A7.64,7.64,0,0,1,322.56,42.76Zm.8,3.12c-.13-.38-.24-.59-.34-.65s-.25,0-.46.27a2.3,2.3,0,0,0-.61,1.2,20.54,20.54,0,0,0-.11,2.76q0,4.33.72,4.26a.74.74,0,0,0,.34-.27q.3-.34.47-3.57A19.42,19.42,0,0,0,323.36,45.87Z" transform="translate(0 -3.48)"/><path class="a" d="M331.26,42.76q.8-.72,1.1-.68.83.19,1.18,2.66a26.53,26.53,0,0,1-.87,10.18,24.37,24.37,0,0,0-.65,3,26.39,26.39,0,0,0,.85,3.33q.86,2.94,1.16,3.67a4.56,4.56,0,0,1,.36,1.35,1.08,1.08,0,0,1-.17.86c-.15.15-.41.14-.76,0a1.92,1.92,0,0,1-.84-.82,6.93,6.93,0,0,1-.49-1.8,16.55,16.55,0,0,0-.68-2.53q-.38-1-.65-1t-.27.23a3.9,3.9,0,0,1-.61,1.44,3.68,3.68,0,0,1-1,1.25.68.68,0,0,1-.46.15,1.26,1.26,0,0,1-.46-.34l-.46-.46.42-.84,1.18-2.2a7.25,7.25,0,0,0,.65-1.37,7.1,7.1,0,0,0,.15-1.41,8.29,8.29,0,0,0-.3-2.36,23.32,23.32,0,0,1-.8-6.42,19.66,19.66,0,0,1,.17-2.22,6.69,6.69,0,0,1,.63-1.5A7.64,7.64,0,0,1,331.26,42.76Zm.8,3.12c-.13-.38-.24-.59-.34-.65s-.25,0-.46.27a2.3,2.3,0,0,0-.61,1.2,20.54,20.54,0,0,0-.11,2.76q0,4.33.72,4.26a.74.74,0,0,0,.34-.27q.3-.34.47-3.57A19.42,19.42,0,0,0,332.06,45.87Z" transform="translate(0 -3.48)"/><path class="a" d="M336.66,53.43q.49-.61.91,0a15.09,15.09,0,0,1,.49,4.33q.19,4.52.72,4.52.23,0,.72-.68A8.82,8.82,0,0,0,340.4,60a7.1,7.1,0,0,0,.36-1.62,16.59,16.59,0,0,1,.72-4.26q.65-.76.84.76a26.61,26.61,0,0,1-.3,5.05q-.23,2.28-.34,3.61-.61,6.08-.68,7.22l-.11,2.09h-1.63l.11-1.79a45.69,45.69,0,0,1,.57-6.57,1,1,0,0,0,0-.44s-.14,0-.34,0a4.18,4.18,0,0,1-1.18.23q-.68.08-.91-.23a5.56,5.56,0,0,1-.53-1.63,26,26,0,0,1-.67-5.4Q336.24,54,336.66,53.43Z" transform="translate(0 -3.48)"/><path class="a" d="M371.8,56.45h-.09a.9.9,0,0,1-.81-1c.29-2.86,3.39-4.39,6.39-5.87.61-.3,1.22-.6,1.82-.92a36.33,36.33,0,0,1-7.92-5.47.9.9,0,0,1,1.22-1.32s4.59,4.23,9,5.81a.9.9,0,0,1,.18,1.61,37.56,37.56,0,0,1-3.53,1.9c-2.68,1.32-5.2,2.56-5.39,4.43A.9.9,0,0,1,371.8,56.45Z" transform="translate(0 -3.48)"/><path class="a" d="M364.14,50.6c-3,0-5.87-.14-6.05-.15a.9.9,0,0,1,.09-1.8,99,99,0,0,0,10.21,0c3.63-.33,12.59-1,12.68-1a.9.9,0,1,1,.13,1.79c-.09,0-9,.67-12.65,1C367.28,50.56,365.69,50.6,364.14,50.6Z" transform="translate(0 -3.48)"/><path class="a" d="M39.78,44.75c-7.33,0-12.85-5.24-12.85-12.2V20.89A12.87,12.87,0,0,1,39.78,8c7,0,12.2,5.53,12.2,12.85l.65,11.61C52.63,39.51,47.11,44.75,39.78,44.75Zm0-34.91A11.07,11.07,0,0,0,28.73,20.89V32.55c0,5.93,4.75,10.4,11.05,10.4s11.05-4.47,11.05-10.4l-.65-11.61C50.18,14.59,45.71,9.84,39.78,9.84Z" transform="translate(0 -3.48)"/><path class="a" d="M31.32,25.51a.9.9,0,0,1-.18-1.78,60.71,60.71,0,0,1,14.34-1.17c2.92.23,4.52.35,5.39.51H51v0c1,.18.95.41.94.89a.92.92,0,0,1-.9.88.82.82,0,0,1-.29,0c-.29,0-1.38-.15-5.39-.46-6-.48-13.76,1.12-13.84,1.14Z" transform="translate(0 -3.48)"/><path class="a" d="M39.52,23.87a.9.9,0,0,1-.9-.9v-5.9a.9.9,0,1,1,1.8,0V23A.9.9,0,0,1,39.52,23.87Z" transform="translate(0 -3.48)"/><path class="a" d="M13.9,22.62h-.09c-2.86-.29-4.39-3.39-5.87-6.38-.3-.61-.6-1.22-.92-1.82a36.32,36.32,0,0,1-5.47,7.92A.9.9,0,0,1,.24,21.11s4.23-4.59,5.81-9a.9.9,0,0,1,.75-.59.88.88,0,0,1,.86.41,37.47,37.47,0,0,1,1.9,3.53c1.32,2.67,2.56,5.2,4.43,5.39a.9.9,0,0,1-.09,1.8Z" transform="translate(0 -3.48)"/><path class="a" d="M7.9,36.29h0A.9.9,0,0,1,7,35.34,98.84,98.84,0,0,0,7,25.13C6.67,21.5,6,12.54,6,12.45a.9.9,0,1,1,1.79-.13c0,.09.67,9,1,12.65a98.64,98.64,0,0,1,0,10.46A.9.9,0,0,1,7.9,36.29Z" transform="translate(0 -3.48)"/><path class="a" d="M8.23,44a.9.9,0,0,1-.81-.52c0-.05-2.56-5.34-6.14-6.53a.9.9,0,1,1,.57-1.71c2.95,1,5.17,4,6.32,5.88,1.26-2.56,3.63-7,5.32-7.83a.9.9,0,1,1,.8,1.61c-1.18.59-3.78,5.37-5.25,8.57a.9.9,0,0,1-.81.52Z" transform="translate(0 -3.48)"/></svg>